<?xml version="1.0" encoding="UTF-8"?>
<svg width="32px" height="26px" viewBox="0 0 32 26" version="1.1" xmlns="http://www.w3.org/2000/svg" xmlns:xlink="http://www.w3.org/1999/xlink">
    <title>L</title>
    <desc>Created with Sketch.</desc>
    <g id="Symbols" stroke="none" stroke-width="1" fill="none" fill-rule="evenodd">
        <g id="header-2-copy-7" transform="translate(-44.000000, -61.000000)" fill-rule="nonzero">
            <g id="header-2">
                <g id="header">
                    <g id="L" transform="translate(44.448000, 61.800000) scale(1,-1) translate(0,-25.2)">
                        <path d="M6.768,25.2 L6.768,4.86 L12.024,4.86 L12.024,0 L0.9,0 C0.636,0 0.42,0.09 0.252,0.27 C0.084,0.45 0,0.672 0,0.936 L0,0.936 L0,24.3 C0,24.54 0.09,24.75 0.27,24.93 C0.45,25.11 0.66,25.2 0.9,25.2 L0.9,25.2 L6.768,25.2 Z" fill="#282642"></path>
                        <path d="M30.42,25.2 C30.684,25.2 30.9,25.11 31.068,24.93 C31.236,24.75 31.32,24.54 31.32,24.3 L31.32,24.3 L31.32,19.548 C31.32,19.284 31.236,19.062 31.068,18.882 C30.9,18.702 30.684,18.612 30.42,18.612 L30.42,18.612 L25.668,18.612 C25.404,18.612 25.182,18.702 25.002,18.882 C24.822,19.062 24.732,19.284 24.732,19.548 L24.732,19.548 L24.732,24.3 C24.732,24.564 24.822,24.78 25.002,24.948 C25.182,25.116 25.404,25.2 25.668,25.2 L25.668,25.2 L30.42,25.2 Z" fill="#FF4C60"></path>
                    </g>
                </g>
            </g>
        </g>
    </g>
</svg>
